<mxfile modified="2020-10-01T19:36:12.628Z" host="app.diagrams.net" agent="5.0 (Windows NT 10.0; Win64; x64) AppleWebKit/537.36 (KHTML, like Gecko) Chrome/85.0.4183.121 Safari/537.36 Edg/85.0.564.63" etag="E9xvk3W9sV-q6CKH3RZe" version="13.7.7" type="github">
  <diagram id="Ht1M8jgEwFfnCIfOTk4-" name="Page-1">
    <mxGraphModel dx="2966" dy="1657" grid="1" gridSize="10" guides="1" tooltips="1" connect="1" arrows="1" fold="1" page="1" pageScale="1" pageWidth="1169" pageHeight="827" math="0" shadow="0">
      <root>
        <mxCell id="0" />
        <mxCell id="1" parent="0" />
        <mxCell id="wWZG4Q2au94G-TuAlexM-19" value="" style="rounded=0;whiteSpace=wrap;html=1;fillColor=none;" vertex="1" parent="1">
          <mxGeometry x="610" y="250" width="1670" height="490" as="geometry" />
        </mxCell>
        <mxCell id="wWZG4Q2au94G-TuAlexM-28" value="&lt;font style=&quot;font-size: 19px&quot; color=&quot;#000000&quot;&gt;VPC&lt;/font&gt;" style="points=[[0,0],[0.25,0],[0.5,0],[0.75,0],[1,0],[1,0.25],[1,0.5],[1,0.75],[1,1],[0.75,1],[0.5,1],[0.25,1],[0,1],[0,0.75],[0,0.5],[0,0.25]];outlineConnect=0;gradientColor=none;html=1;whiteSpace=wrap;fontSize=12;fontStyle=0;shape=mxgraph.aws4.group;grIcon=mxgraph.aws4.group_vpc;strokeColor=#248814;fillColor=none;verticalAlign=top;align=left;spacingLeft=30;fontColor=#AAB7B8;dashed=0;" vertex="1" parent="1">
          <mxGeometry x="930" y="265.5" width="1270" height="458.5" as="geometry" />
        </mxCell>
        <mxCell id="wWZG4Q2au94G-TuAlexM-44" value="" style="rounded=1;arcSize=10;dashed=0;fillColor=none;gradientColor=none;strokeWidth=2;" vertex="1" parent="1">
          <mxGeometry x="1440" y="500" width="325" height="200" as="geometry" />
        </mxCell>
        <mxCell id="wWZG4Q2au94G-TuAlexM-4" value="" style="rounded=0;whiteSpace=wrap;html=1;fillColor=none;" vertex="1" parent="1">
          <mxGeometry x="84.5" y="236.5" width="295.5" height="133.5" as="geometry" />
        </mxCell>
        <mxCell id="-QjtrjUzRDEMRZ5MF8oH-9" value="1" style="rounded=1;whiteSpace=wrap;html=1;fillColor=#007CBD;strokeColor=none;fontColor=#FFFFFF;fontStyle=1;fontSize=22;" parent="1" vertex="1">
          <mxGeometry x="30" y="237.76" width="40" height="38" as="geometry" />
        </mxCell>
        <mxCell id="-QjtrjUzRDEMRZ5MF8oH-27" value="2" style="rounded=1;whiteSpace=wrap;html=1;fillColor=#007CBD;strokeColor=none;fontColor=#FFFFFF;fontStyle=1;fontSize=22;" parent="1" vertex="1">
          <mxGeometry x="30" y="404" width="40" height="38" as="geometry" />
        </mxCell>
        <mxCell id="-QjtrjUzRDEMRZ5MF8oH-47" value="Corima" style="text;html=1;resizable=0;points=[];autosize=1;align=left;verticalAlign=top;spacingTop=-4;fontSize=30;fontStyle=1" parent="1" vertex="1">
          <mxGeometry x="56.5" y="64.5" width="120" height="40" as="geometry" />
        </mxCell>
        <mxCell id="-QjtrjUzRDEMRZ5MF8oH-48" value="Architecture&lt;br&gt;" style="text;html=1;resizable=0;points=[];autosize=1;align=left;verticalAlign=top;spacingTop=-4;fontSize=16;" parent="1" vertex="1">
          <mxGeometry x="56.5" y="114.5" width="100" height="20" as="geometry" />
        </mxCell>
        <mxCell id="-QjtrjUzRDEMRZ5MF8oH-49" value="mobile client" style="text;html=1;resizable=0;points=[];autosize=1;align=left;verticalAlign=top;spacingTop=-4;fontSize=16;fontStyle=1" parent="1" vertex="1">
          <mxGeometry x="96.5" y="237.5" width="110" height="20" as="geometry" />
        </mxCell>
        <mxCell id="SCVMTBWpLvtzJIhz15lM-1" value="" style="line;strokeWidth=2;html=1;fontSize=14;" parent="1" vertex="1">
          <mxGeometry x="52.5" y="139.5" width="1060" height="10" as="geometry" />
        </mxCell>
        <mxCell id="wWZG4Q2au94G-TuAlexM-5" value="" style="shape=image;html=1;verticalAlign=top;verticalLabelPosition=bottom;labelBackgroundColor=#ffffff;imageAspect=0;aspect=fixed;image=https://cdn4.iconfinder.com/data/icons/logos-brands-5/24/flutter-128.png;fillColor=none;" vertex="1" parent="1">
          <mxGeometry x="186.5" y="261.5" width="70" height="70" as="geometry" />
        </mxCell>
        <mxCell id="wWZG4Q2au94G-TuAlexM-6" value="&lt;font style=&quot;font-size: 18px&quot; color=&quot;#000000&quot;&gt;Web Client (SPA)&lt;/font&gt;" style="html=1;strokeColor=none;labelPosition=center;verticalLabelPosition=middle;verticalAlign=top;align=center;fontSize=12;outlineConnect=0;spacingTop=-6;fontColor=#FFFFFF;shape=mxgraph.sitemap.page;fillColor=#7EA6E0;" vertex="1" parent="1">
          <mxGeometry x="80" y="400" width="300" height="160" as="geometry" />
        </mxCell>
        <mxCell id="wWZG4Q2au94G-TuAlexM-7" value="" style="html=1;verticalLabelPosition=bottom;align=center;labelBackgroundColor=#ffffff;verticalAlign=top;strokeWidth=2;strokeColor=#0080F0;shadow=0;dashed=0;shape=mxgraph.ios7.icons.smartphone;fillColor=none;" vertex="1" parent="1">
          <mxGeometry x="110" y="267.5" width="40" height="70" as="geometry" />
        </mxCell>
        <mxCell id="wWZG4Q2au94G-TuAlexM-8" value="" style="shape=image;html=1;verticalAlign=top;verticalLabelPosition=bottom;labelBackgroundColor=#ffffff;imageAspect=0;aspect=fixed;image=https://cdn4.iconfinder.com/data/icons/logos-and-brands/512/267_Python_logo-128.png;fillColor=#7EA6E0;" vertex="1" parent="1">
          <mxGeometry x="139.75" y="472" width="59.5" height="59.5" as="geometry" />
        </mxCell>
        <mxCell id="wWZG4Q2au94G-TuAlexM-10" value="&lt;font style=&quot;font-size: 31px&quot; color=&quot;#006600&quot;&gt;django&lt;/font&gt;" style="text;html=1;align=center;verticalAlign=middle;resizable=0;points=[];autosize=1;" vertex="1" parent="1">
          <mxGeometry x="119.5" y="439.5" width="110" height="30" as="geometry" />
        </mxCell>
        <mxCell id="wWZG4Q2au94G-TuAlexM-12" value="" style="outlineConnect=0;fontColor=#232F3E;gradientColor=#F54749;gradientDirection=north;fillColor=#C7131F;strokeColor=#ffffff;dashed=0;verticalLabelPosition=bottom;verticalAlign=top;align=center;html=1;fontSize=12;fontStyle=0;aspect=fixed;shape=mxgraph.aws4.resourceIcon;resIcon=mxgraph.aws4.amplify;" vertex="1" parent="1">
          <mxGeometry x="280" y="261.5" width="78" height="78" as="geometry" />
        </mxCell>
        <mxCell id="wWZG4Q2au94G-TuAlexM-13" value="" style="outlineConnect=0;fontColor=#232F3E;gradientColor=#F54749;gradientDirection=north;fillColor=#C7131F;strokeColor=#ffffff;dashed=0;verticalLabelPosition=bottom;verticalAlign=top;align=center;html=1;fontSize=12;fontStyle=0;aspect=fixed;shape=mxgraph.aws4.resourceIcon;resIcon=mxgraph.aws4.amplify;" vertex="1" parent="1">
          <mxGeometry x="280" y="442" width="78" height="78" as="geometry" />
        </mxCell>
        <mxCell id="wWZG4Q2au94G-TuAlexM-15" value="" style="outlineConnect=0;dashed=0;verticalLabelPosition=bottom;verticalAlign=top;align=center;html=1;shape=mxgraph.aws3.cognito;fillColor=#AD688B;gradientColor=none;" vertex="1" parent="1">
          <mxGeometry x="550.5" y="315" width="110" height="137.5" as="geometry" />
        </mxCell>
        <mxCell id="wWZG4Q2au94G-TuAlexM-17" value="" style="endArrow=classic;html=1;entryX=0;entryY=0.5;entryDx=0;entryDy=0;entryPerimeter=0;" edge="1" parent="1" source="wWZG4Q2au94G-TuAlexM-12" target="wWZG4Q2au94G-TuAlexM-15">
          <mxGeometry width="50" height="50" relative="1" as="geometry">
            <mxPoint x="510" y="560" as="sourcePoint" />
            <mxPoint x="530" y="383" as="targetPoint" />
            <Array as="points">
              <mxPoint x="460" y="301" />
              <mxPoint x="460" y="383" />
            </Array>
          </mxGeometry>
        </mxCell>
        <mxCell id="wWZG4Q2au94G-TuAlexM-18" value="" style="endArrow=classic;html=1;entryX=0;entryY=0.5;entryDx=0;entryDy=0;entryPerimeter=0;" edge="1" parent="1" target="wWZG4Q2au94G-TuAlexM-15">
          <mxGeometry width="50" height="50" relative="1" as="geometry">
            <mxPoint x="358" y="478.31829787234045" as="sourcePoint" />
            <mxPoint x="530" y="383" as="targetPoint" />
            <Array as="points">
              <mxPoint x="460" y="478.68" />
              <mxPoint x="460" y="383" />
            </Array>
          </mxGeometry>
        </mxCell>
        <mxCell id="wWZG4Q2au94G-TuAlexM-21" value="&lt;font style=&quot;font-size: 19px&quot;&gt;Cognito&lt;/font&gt;" style="text;html=1;align=center;verticalAlign=middle;resizable=0;points=[];autosize=1;" vertex="1" parent="1">
          <mxGeometry x="565.5" y="460" width="80" height="20" as="geometry" />
        </mxCell>
        <mxCell id="wWZG4Q2au94G-TuAlexM-23" value="" style="outlineConnect=0;dashed=0;verticalLabelPosition=bottom;verticalAlign=top;align=center;html=1;shape=mxgraph.aws3.api_gateway;fillColor=#D9A741;gradientColor=none;" vertex="1" parent="1">
          <mxGeometry x="740" y="318.25" width="119.5" height="128.5" as="geometry" />
        </mxCell>
        <mxCell id="wWZG4Q2au94G-TuAlexM-24" value="" style="endArrow=classic;html=1;entryX=0.35;entryY=0.5;entryDx=0;entryDy=0;entryPerimeter=0;exitX=1;exitY=0.5;exitDx=0;exitDy=0;exitPerimeter=0;" edge="1" parent="1" source="wWZG4Q2au94G-TuAlexM-15" target="wWZG4Q2au94G-TuAlexM-23">
          <mxGeometry width="50" height="50" relative="1" as="geometry">
            <mxPoint x="580" y="490" as="sourcePoint" />
            <mxPoint x="630" y="440" as="targetPoint" />
          </mxGeometry>
        </mxCell>
        <mxCell id="wWZG4Q2au94G-TuAlexM-25" value="&lt;font style=&quot;font-size: 20px&quot;&gt;API GateWay&lt;/font&gt;" style="text;html=1;align=center;verticalAlign=middle;resizable=0;points=[];autosize=1;" vertex="1" parent="1">
          <mxGeometry x="734.5" y="460" width="140" height="20" as="geometry" />
        </mxCell>
        <mxCell id="wWZG4Q2au94G-TuAlexM-26" value="" style="outlineConnect=0;fontColor=#232F3E;gradientColor=none;fillColor=#D05C17;strokeColor=none;dashed=0;verticalLabelPosition=bottom;verticalAlign=top;align=center;html=1;fontSize=12;fontStyle=0;aspect=fixed;pointerEvents=1;shape=mxgraph.aws4.lambda_function;" vertex="1" parent="1">
          <mxGeometry x="1348.5" y="342.88" width="78" height="78" as="geometry" />
        </mxCell>
        <mxCell id="wWZG4Q2au94G-TuAlexM-27" value="" style="endArrow=classic;html=1;exitX=0.65;exitY=0.5;exitDx=0;exitDy=0;exitPerimeter=0;entryX=0;entryY=0.5;entryDx=0;entryDy=0;entryPerimeter=0;" edge="1" parent="1" target="wWZG4Q2au94G-TuAlexM-35">
          <mxGeometry width="50" height="50" relative="1" as="geometry">
            <mxPoint x="817.6750000000002" y="381.5" as="sourcePoint" />
            <mxPoint x="1110" y="360" as="targetPoint" />
          </mxGeometry>
        </mxCell>
        <mxCell id="wWZG4Q2au94G-TuAlexM-29" value="&lt;font style=&quot;font-size: 20px&quot;&gt;Lambda Function&lt;/font&gt;" style="text;html=1;align=center;verticalAlign=middle;resizable=0;points=[];autosize=1;" vertex="1" parent="1">
          <mxGeometry x="1302.5" y="430.88" width="170" height="20" as="geometry" />
        </mxCell>
        <mxCell id="wWZG4Q2au94G-TuAlexM-30" value="" style="outlineConnect=0;fontColor=#232F3E;gradientColor=#945DF2;gradientDirection=north;fillColor=#5A30B5;strokeColor=#ffffff;dashed=0;verticalLabelPosition=bottom;verticalAlign=top;align=center;html=1;fontSize=12;fontStyle=0;aspect=fixed;shape=mxgraph.aws4.resourceIcon;resIcon=mxgraph.aws4.vpc_privatelink;" vertex="1" parent="1">
          <mxGeometry x="890.5" y="519.5" width="78" height="78" as="geometry" />
        </mxCell>
        <mxCell id="wWZG4Q2au94G-TuAlexM-31" value="" style="outlineConnect=0;fontColor=#232F3E;gradientColor=#F54749;gradientDirection=north;fillColor=#C7131F;strokeColor=#ffffff;dashed=0;verticalLabelPosition=bottom;verticalAlign=top;align=center;html=1;fontSize=12;fontStyle=0;aspect=fixed;shape=mxgraph.aws4.resourceIcon;resIcon=mxgraph.aws4.secrets_manager;" vertex="1" parent="1">
          <mxGeometry x="739.5" y="519.5" width="78" height="78" as="geometry" />
        </mxCell>
        <mxCell id="wWZG4Q2au94G-TuAlexM-32" value="" style="endArrow=classic;startArrow=classic;html=1;" edge="1" parent="1" source="wWZG4Q2au94G-TuAlexM-31" target="wWZG4Q2au94G-TuAlexM-30">
          <mxGeometry width="50" height="50" relative="1" as="geometry">
            <mxPoint x="610" y="449.5" as="sourcePoint" />
            <mxPoint x="660" y="399.5" as="targetPoint" />
          </mxGeometry>
        </mxCell>
        <mxCell id="wWZG4Q2au94G-TuAlexM-33" value="&lt;font style=&quot;font-size: 20px&quot;&gt;VPC Enpoint&lt;/font&gt;" style="text;html=1;align=center;verticalAlign=middle;resizable=0;points=[];autosize=1;" vertex="1" parent="1">
          <mxGeometry x="868.5" y="609.5" width="130" height="20" as="geometry" />
        </mxCell>
        <mxCell id="wWZG4Q2au94G-TuAlexM-34" value="&lt;font style=&quot;font-size: 20px&quot;&gt;Secrets Manager&lt;/font&gt;" style="text;html=1;align=center;verticalAlign=middle;resizable=0;points=[];autosize=1;" vertex="1" parent="1">
          <mxGeometry x="698.5" y="609.5" width="170" height="20" as="geometry" />
        </mxCell>
        <mxCell id="wWZG4Q2au94G-TuAlexM-35" value="" style="outlineConnect=0;dashed=0;verticalLabelPosition=bottom;verticalAlign=top;align=center;html=1;shape=mxgraph.aws3.classic_load_balancer;fillColor=#F58534;gradientColor=none;" vertex="1" parent="1">
          <mxGeometry x="952" y="342.38" width="76" height="78.75" as="geometry" />
        </mxCell>
        <mxCell id="wWZG4Q2au94G-TuAlexM-36" value="" style="endArrow=classic;html=1;exitX=1;exitY=0.5;exitDx=0;exitDy=0;exitPerimeter=0;" edge="1" parent="1" source="wWZG4Q2au94G-TuAlexM-35" target="wWZG4Q2au94G-TuAlexM-26">
          <mxGeometry width="50" height="50" relative="1" as="geometry">
            <mxPoint x="610" y="470" as="sourcePoint" />
            <mxPoint x="660" y="420" as="targetPoint" />
          </mxGeometry>
        </mxCell>
        <mxCell id="wWZG4Q2au94G-TuAlexM-38" value="&lt;font style=&quot;font-size: 20px&quot;&gt;Deep Security Balancer&lt;/font&gt;" style="text;html=1;align=center;verticalAlign=middle;resizable=0;points=[];autosize=1;" vertex="1" parent="1">
          <mxGeometry x="873" y="318.25" width="230" height="20" as="geometry" />
        </mxCell>
        <mxCell id="wWZG4Q2au94G-TuAlexM-39" value="" style="outlineConnect=0;dashed=0;verticalLabelPosition=bottom;verticalAlign=top;align=center;html=1;shape=mxgraph.aws3.android;fillColor=#8CC64F;gradientColor=none;" vertex="1" parent="1">
          <mxGeometry x="1810" y="341.25" width="73.5" height="84" as="geometry" />
        </mxCell>
        <mxCell id="wWZG4Q2au94G-TuAlexM-40" value="" style="endArrow=classic;html=1;entryX=0;entryY=0.5;entryDx=0;entryDy=0;entryPerimeter=0;" edge="1" parent="1" source="wWZG4Q2au94G-TuAlexM-26" target="wWZG4Q2au94G-TuAlexM-39">
          <mxGeometry width="50" height="50" relative="1" as="geometry">
            <mxPoint x="1302.5" y="460.5" as="sourcePoint" />
            <mxPoint x="1352.5" y="410.5" as="targetPoint" />
          </mxGeometry>
        </mxCell>
        <mxCell id="wWZG4Q2au94G-TuAlexM-41" value="&lt;font style=&quot;font-size: 20px&quot;&gt;Node.js&lt;/font&gt;" style="text;html=1;align=center;verticalAlign=middle;resizable=0;points=[];autosize=1;" vertex="1" parent="1">
          <mxGeometry x="1806.75" y="432.5" width="80" height="20" as="geometry" />
        </mxCell>
        <mxCell id="wWZG4Q2au94G-TuAlexM-42" value="" style="outlineConnect=0;dashed=0;verticalLabelPosition=bottom;verticalAlign=top;align=center;html=1;shape=mxgraph.aws3.rds;fillColor=#2E73B8;gradientColor=none;" vertex="1" parent="1">
          <mxGeometry x="1566" y="536.5" width="72" height="81" as="geometry" />
        </mxCell>
        <mxCell id="wWZG4Q2au94G-TuAlexM-43" value="&lt;font style=&quot;font-size: 20px&quot;&gt;RDS Deep Security Database&lt;/font&gt;" style="text;html=1;align=center;verticalAlign=middle;resizable=0;points=[];autosize=1;" vertex="1" parent="1">
          <mxGeometry x="1462.5" y="629.5" width="280" height="20" as="geometry" />
        </mxCell>
        <mxCell id="wWZG4Q2au94G-TuAlexM-45" value="" style="dashed=0;html=1;shape=mxgraph.aws3.permissions;fillColor=#D9A741;gradientColor=none;dashed=0;" vertex="1" parent="1">
          <mxGeometry x="1460" y="480" width="30" height="35" as="geometry" />
        </mxCell>
        <mxCell id="wWZG4Q2au94G-TuAlexM-46" value="" style="rounded=1;arcSize=10;dashed=0;fillColor=none;gradientColor=none;strokeWidth=2;" vertex="1" parent="1">
          <mxGeometry x="1805" y="500" width="325" height="200" as="geometry" />
        </mxCell>
        <mxCell id="wWZG4Q2au94G-TuAlexM-47" value="" style="outlineConnect=0;dashed=0;verticalLabelPosition=bottom;verticalAlign=top;align=center;html=1;shape=mxgraph.aws3.rds;fillColor=#2E73B8;gradientColor=none;" vertex="1" parent="1">
          <mxGeometry x="1931" y="536.5" width="72" height="81" as="geometry" />
        </mxCell>
        <mxCell id="wWZG4Q2au94G-TuAlexM-48" value="&lt;font style=&quot;font-size: 20px&quot;&gt;RDS Deep Security Database&lt;br&gt;(Mirror)&lt;br&gt;&lt;/font&gt;" style="text;html=1;align=center;verticalAlign=middle;resizable=0;points=[];autosize=1;" vertex="1" parent="1">
          <mxGeometry x="1827.5" y="619.5" width="280" height="40" as="geometry" />
        </mxCell>
        <mxCell id="wWZG4Q2au94G-TuAlexM-49" value="" style="outlineConnect=0;fontColor=#232F3E;gradientColor=#945DF2;gradientDirection=north;fillColor=#5A30B5;strokeColor=#ffffff;dashed=0;verticalLabelPosition=bottom;verticalAlign=top;align=center;html=1;fontSize=12;fontStyle=0;aspect=fixed;shape=mxgraph.aws4.resourceIcon;resIcon=mxgraph.aws4.vpc_privatelink;" vertex="1" parent="1">
          <mxGeometry x="2160" y="341.25" width="78" height="78" as="geometry" />
        </mxCell>
        <mxCell id="wWZG4Q2au94G-TuAlexM-50" value="&lt;font style=&quot;font-size: 20px&quot;&gt;VPC Enpoint&lt;/font&gt;" style="text;html=1;align=center;verticalAlign=middle;resizable=0;points=[];autosize=1;" vertex="1" parent="1">
          <mxGeometry x="2134" y="432.5" width="130" height="20" as="geometry" />
        </mxCell>
        <mxCell id="wWZG4Q2au94G-TuAlexM-51" value="" style="endArrow=classic;html=1;exitX=1;exitY=0.5;exitDx=0;exitDy=0;exitPerimeter=0;" edge="1" parent="1" source="wWZG4Q2au94G-TuAlexM-39" target="wWZG4Q2au94G-TuAlexM-49">
          <mxGeometry width="50" height="50" relative="1" as="geometry">
            <mxPoint x="1320" y="600" as="sourcePoint" />
            <mxPoint x="1370" y="550" as="targetPoint" />
          </mxGeometry>
        </mxCell>
        <mxCell id="wWZG4Q2au94G-TuAlexM-52" value="" style="endArrow=classic;startArrow=classic;html=1;entryX=0;entryY=0.5;entryDx=0;entryDy=0;entryPerimeter=0;" edge="1" parent="1" source="wWZG4Q2au94G-TuAlexM-42" target="wWZG4Q2au94G-TuAlexM-47">
          <mxGeometry width="50" height="50" relative="1" as="geometry">
            <mxPoint x="1805" y="669.5" as="sourcePoint" />
            <mxPoint x="1855" y="619.5" as="targetPoint" />
          </mxGeometry>
        </mxCell>
        <mxCell id="wWZG4Q2au94G-TuAlexM-53" value="&lt;font style=&quot;font-size: 20px&quot;&gt;Private Subnet&lt;/font&gt;" style="text;html=1;align=center;verticalAlign=middle;resizable=0;points=[];autosize=1;" vertex="1" parent="1">
          <mxGeometry x="1527.5" y="669.5" width="150" height="20" as="geometry" />
        </mxCell>
        <mxCell id="wWZG4Q2au94G-TuAlexM-54" value="&lt;font style=&quot;font-size: 20px&quot;&gt;Private Subnet&lt;/font&gt;" style="text;html=1;align=center;verticalAlign=middle;resizable=0;points=[];autosize=1;" vertex="1" parent="1">
          <mxGeometry x="1890" y="671.5" width="150" height="20" as="geometry" />
        </mxCell>
        <mxCell id="wWZG4Q2au94G-TuAlexM-56" value="" style="endArrow=classic;startArrow=classic;html=1;entryX=0.5;entryY=0;entryDx=0;entryDy=0;entryPerimeter=0;exitX=0.5;exitY=0;exitDx=0;exitDy=0;exitPerimeter=0;" edge="1" parent="1" source="wWZG4Q2au94G-TuAlexM-61" target="wWZG4Q2au94G-TuAlexM-47">
          <mxGeometry width="50" height="50" relative="1" as="geometry">
            <mxPoint x="1410" y="670" as="sourcePoint" />
            <mxPoint x="1460" y="620" as="targetPoint" />
            <Array as="points">
              <mxPoint x="1084" y="470" />
              <mxPoint x="1573" y="470" />
              <mxPoint x="1967" y="470" />
            </Array>
          </mxGeometry>
        </mxCell>
        <mxCell id="wWZG4Q2au94G-TuAlexM-57" value="" style="endArrow=classic;startArrow=classic;html=1;entryX=0.5;entryY=0;entryDx=0;entryDy=0;entryPerimeter=0;exitX=0.5;exitY=0;exitDx=0;exitDy=0;exitPerimeter=0;" edge="1" parent="1" source="wWZG4Q2au94G-TuAlexM-59" target="wWZG4Q2au94G-TuAlexM-42">
          <mxGeometry width="50" height="50" relative="1" as="geometry">
            <mxPoint x="1410" y="670" as="sourcePoint" />
            <mxPoint x="1460" y="620" as="targetPoint" />
            <Array as="points">
              <mxPoint x="1315" y="470" />
              <mxPoint x="1208" y="470" />
              <mxPoint x="1602" y="470" />
            </Array>
          </mxGeometry>
        </mxCell>
        <mxCell id="wWZG4Q2au94G-TuAlexM-58" value="" style="outlineConnect=0;fontColor=#232F3E;gradientColor=#F78E04;gradientDirection=north;fillColor=#D05C17;strokeColor=#ffffff;dashed=0;verticalLabelPosition=bottom;verticalAlign=top;align=center;html=1;fontSize=12;fontStyle=0;aspect=fixed;shape=mxgraph.aws4.resourceIcon;resIcon=mxgraph.aws4.blockchain;" vertex="1" parent="1">
          <mxGeometry x="2420" y="275.76" width="207.24" height="207.24" as="geometry" />
        </mxCell>
        <mxCell id="wWZG4Q2au94G-TuAlexM-59" value="" style="outlineConnect=0;dashed=0;verticalLabelPosition=bottom;verticalAlign=top;align=center;html=1;shape=mxgraph.aws3.certificate_manager;gradientColor=none;fillColor=#FF8000;" vertex="1" parent="1">
          <mxGeometry x="1260" y="531.5" width="110" height="98.5" as="geometry" />
        </mxCell>
        <mxCell id="wWZG4Q2au94G-TuAlexM-60" value="&lt;font style=&quot;font-size: 20px&quot;&gt;Deep Security Manager&lt;/font&gt;" style="text;html=1;align=center;verticalAlign=middle;resizable=0;points=[];autosize=1;" vertex="1" parent="1">
          <mxGeometry x="1200" y="651.5" width="230" height="20" as="geometry" />
        </mxCell>
        <mxCell id="wWZG4Q2au94G-TuAlexM-61" value="" style="outlineConnect=0;dashed=0;verticalLabelPosition=bottom;verticalAlign=top;align=center;html=1;shape=mxgraph.aws3.certificate_manager;gradientColor=none;fillColor=#FF8000;" vertex="1" parent="1">
          <mxGeometry x="1028.5" y="531.5" width="110" height="98.5" as="geometry" />
        </mxCell>
        <mxCell id="wWZG4Q2au94G-TuAlexM-62" value="&lt;font style=&quot;font-size: 20px&quot;&gt;Deep Security Manager&lt;/font&gt;" style="text;html=1;align=center;verticalAlign=middle;resizable=0;points=[];autosize=1;" vertex="1" parent="1">
          <mxGeometry x="968.5" y="651.5" width="230" height="20" as="geometry" />
        </mxCell>
        <mxCell id="wWZG4Q2au94G-TuAlexM-63" value="" style="endArrow=classic;startArrow=classic;html=1;entryX=0.5;entryY=0;entryDx=0;entryDy=0;entryPerimeter=0;exitX=0.5;exitY=1;exitDx=0;exitDy=0;exitPerimeter=0;" edge="1" parent="1" source="wWZG4Q2au94G-TuAlexM-35" target="wWZG4Q2au94G-TuAlexM-59">
          <mxGeometry width="50" height="50" relative="1" as="geometry">
            <mxPoint x="1460" y="690" as="sourcePoint" />
            <mxPoint x="1510" y="640" as="targetPoint" />
            <Array as="points">
              <mxPoint x="990" y="470" />
              <mxPoint x="1315" y="470" />
            </Array>
          </mxGeometry>
        </mxCell>
        <mxCell id="wWZG4Q2au94G-TuAlexM-64" value="" style="endArrow=classic;startArrow=classic;html=1;exitX=0.5;exitY=1;exitDx=0;exitDy=0;exitPerimeter=0;entryX=0.5;entryY=0;entryDx=0;entryDy=0;entryPerimeter=0;" edge="1" parent="1" source="wWZG4Q2au94G-TuAlexM-35" target="wWZG4Q2au94G-TuAlexM-61">
          <mxGeometry width="50" height="50" relative="1" as="geometry">
            <mxPoint x="1460" y="690" as="sourcePoint" />
            <mxPoint x="1510" y="640" as="targetPoint" />
            <Array as="points">
              <mxPoint x="990" y="470" />
              <mxPoint x="1084" y="470" />
            </Array>
          </mxGeometry>
        </mxCell>
        <mxCell id="wWZG4Q2au94G-TuAlexM-65" value="&lt;font style=&quot;font-size: 20px&quot;&gt;Amplify&lt;/font&gt;" style="text;html=1;align=center;verticalAlign=middle;resizable=0;points=[];autosize=1;" vertex="1" parent="1">
          <mxGeometry x="280" y="342.38" width="80" height="20" as="geometry" />
        </mxCell>
        <mxCell id="wWZG4Q2au94G-TuAlexM-66" value="&lt;font style=&quot;font-size: 20px&quot;&gt;Amplify&lt;/font&gt;" style="text;html=1;align=center;verticalAlign=middle;resizable=0;points=[];autosize=1;" vertex="1" parent="1">
          <mxGeometry x="278" y="531.5" width="80" height="20" as="geometry" />
        </mxCell>
        <mxCell id="wWZG4Q2au94G-TuAlexM-69" value="" style="endArrow=classic;startArrow=classic;html=1;" edge="1" parent="1" source="wWZG4Q2au94G-TuAlexM-49" target="wWZG4Q2au94G-TuAlexM-58">
          <mxGeometry width="50" height="50" relative="1" as="geometry">
            <mxPoint x="2120" y="620" as="sourcePoint" />
            <mxPoint x="2170" y="570" as="targetPoint" />
          </mxGeometry>
        </mxCell>
        <mxCell id="wWZG4Q2au94G-TuAlexM-70" value="&lt;font style=&quot;font-size: 30px&quot;&gt;Blockchain&lt;/font&gt;" style="text;html=1;align=center;verticalAlign=middle;resizable=0;points=[];autosize=1;" vertex="1" parent="1">
          <mxGeometry x="2445" y="503" width="160" height="20" as="geometry" />
        </mxCell>
        <mxCell id="wWZG4Q2au94G-TuAlexM-71" value="3" style="rounded=1;whiteSpace=wrap;html=1;fillColor=#007CBD;strokeColor=none;fontColor=#FFFFFF;fontStyle=1;fontSize=22;" vertex="1" parent="1">
          <mxGeometry x="408.5" y="404" width="40" height="38" as="geometry" />
        </mxCell>
        <mxCell id="wWZG4Q2au94G-TuAlexM-72" value="Encrypted&#xa;data" style="outlineConnect=0;fontColor=#232F3E;gradientColor=none;strokeColor=#232F3E;fillColor=#ffffff;dashed=0;verticalLabelPosition=bottom;verticalAlign=top;align=center;html=1;fontSize=12;fontStyle=0;aspect=fixed;shape=mxgraph.aws4.resourceIcon;resIcon=mxgraph.aws4.encrypted_data;" vertex="1" parent="1">
          <mxGeometry x="430" y="443" width="77" height="77" as="geometry" />
        </mxCell>
        <mxCell id="wWZG4Q2au94G-TuAlexM-73" value="4" style="rounded=1;whiteSpace=wrap;html=1;fillColor=#007CBD;strokeColor=none;fontColor=#FFFFFF;fontStyle=1;fontSize=22;arcSize=0;" vertex="1" parent="1">
          <mxGeometry x="530" y="267.5" width="40" height="38" as="geometry" />
        </mxCell>
        <mxCell id="wWZG4Q2au94G-TuAlexM-76" value="5" style="rounded=1;whiteSpace=wrap;html=1;fillColor=#007CBD;strokeColor=none;fontColor=#FFFFFF;fontStyle=1;fontSize=22;" vertex="1" parent="1">
          <mxGeometry x="779.75" y="267.5" width="40" height="38" as="geometry" />
        </mxCell>
        <mxCell id="wWZG4Q2au94G-TuAlexM-77" value="6" style="rounded=1;whiteSpace=wrap;html=1;fillColor=#007CBD;strokeColor=none;fontColor=#FFFFFF;fontStyle=1;fontSize=22;" vertex="1" parent="1">
          <mxGeometry x="1050" y="275.76" width="40" height="38" as="geometry" />
        </mxCell>
        <mxCell id="wWZG4Q2au94G-TuAlexM-78" value="7" style="rounded=1;whiteSpace=wrap;html=1;fillColor=#007CBD;strokeColor=none;fontColor=#FFFFFF;fontStyle=1;fontSize=22;" vertex="1" parent="1">
          <mxGeometry x="1367.5" y="283.5" width="40" height="38" as="geometry" />
        </mxCell>
        <mxCell id="wWZG4Q2au94G-TuAlexM-79" value="8" style="rounded=1;whiteSpace=wrap;html=1;fillColor=#007CBD;strokeColor=none;fontColor=#FFFFFF;fontStyle=1;fontSize=22;" vertex="1" parent="1">
          <mxGeometry x="1827.5" y="284.25" width="40" height="38" as="geometry" />
        </mxCell>
        <mxCell id="wWZG4Q2au94G-TuAlexM-80" value="9" style="rounded=1;whiteSpace=wrap;html=1;fillColor=#007CBD;strokeColor=none;fontColor=#FFFFFF;fontStyle=1;fontSize=22;" vertex="1" parent="1">
          <mxGeometry x="2179" y="283.5" width="40" height="38" as="geometry" />
        </mxCell>
        <mxCell id="wWZG4Q2au94G-TuAlexM-81" value="11" style="rounded=1;whiteSpace=wrap;html=1;fillColor=#007CBD;strokeColor=none;fontColor=#FFFFFF;fontStyle=1;fontSize=22;" vertex="1" parent="1">
          <mxGeometry x="1180" y="531.5" width="40" height="38" as="geometry" />
        </mxCell>
        <mxCell id="wWZG4Q2au94G-TuAlexM-82" value="12" style="rounded=1;whiteSpace=wrap;html=1;fillColor=#007CBD;strokeColor=none;fontColor=#FFFFFF;fontStyle=1;fontSize=22;" vertex="1" parent="1">
          <mxGeometry x="1652" y="513.5" width="40" height="38" as="geometry" />
        </mxCell>
        <mxCell id="wWZG4Q2au94G-TuAlexM-83" value="13" style="rounded=1;whiteSpace=wrap;html=1;fillColor=#007CBD;strokeColor=none;fontColor=#FFFFFF;fontStyle=1;fontSize=22;" vertex="1" parent="1">
          <mxGeometry x="2030" y="519.5" width="40" height="38" as="geometry" />
        </mxCell>
        <mxCell id="wWZG4Q2au94G-TuAlexM-84" value="10" style="rounded=1;whiteSpace=wrap;html=1;fillColor=#007CBD;strokeColor=none;fontColor=#FFFFFF;fontStyle=1;fontSize=22;" vertex="1" parent="1">
          <mxGeometry x="2360" y="284.25" width="40" height="38" as="geometry" />
        </mxCell>
      </root>
    </mxGraphModel>
  </diagram>
</mxfile>
